<svg width="16" height="16" viewBox="0 0 16 16" fill="none" xmlns="http://www.w3.org/2000/svg">
<g clip-path="url(#clip0_19_68)">
<path d="M8.32426 1.05099L8.32425 1.05098C8.19149 0.781963 7.80847 0.782418 7.67616 1.0508L7.67607 1.05099L5.87149 4.70754C5.87149 4.70755 5.87148 4.70756 5.87148 4.70757C5.67312 5.10954 5.28962 5.38802 4.84608 5.45236M8.32426 1.05099L4.7743 4.95754M8.32426 1.05099L10.1288 4.70754L8.32426 1.05099ZM4.84608 5.45236L4.7743 4.95754M4.84608 5.45236L4.8462 5.45235L4.7743 4.95754M4.84608 5.45236L0.810821 6.03874L0.810643 6.03877C0.514401 6.08171 0.395528 6.44581 0.610324 6.6554L0.26133 7.01344L0.610408 6.65548L3.53031 9.50162L3.53042 9.50173C3.85093 9.81434 3.99766 10.2651 3.92175 10.7068L3.42895 10.6223M4.7743 4.95754L0.738919 5.54394C0.032035 5.6464 -0.249984 6.51482 0.261322 7.01345L3.1813 9.85967C3.38423 10.0576 3.47701 10.3429 3.42895 10.6223M3.42895 10.6223L2.73975 14.6413C2.61894 15.3452 3.35786 15.8822 3.98998 15.5498L7.59916 13.6524C7.85014 13.5206 8.15018 13.5206 8.40116 13.6524L12.0103 15.5498M3.42895 10.6223L3.92171 10.7071L3.23256 14.7258L3.23255 14.7259C3.18182 15.0214 3.49209 15.2467 3.75726 15.1072L3.75732 15.1072L7.3665 13.2098L7.36665 13.2098C7.76321 13.0015 8.23712 13.0015 8.63367 13.2098L8.63383 13.2098L12.2429 15.1071M15.2614 5.54394C15.9683 5.64674 16.2503 6.51516 15.739 7.01345M15.2614 5.54394L11.226 4.95754M15.2614 5.54394L15.1895 6.03874L15.1895 6.03874M15.2614 5.54394L15.1895 6.03874M15.739 7.01345L10.5772 4.48629C10.7027 4.7406 10.9453 4.91682 11.226 4.95754M15.739 7.01345L12.819 9.85967L15.739 7.01345ZM11.226 4.95754L11.1542 5.45236M11.226 4.95754L11.1541 5.45235C10.7106 5.38797 10.3272 5.1095 10.1288 4.70757L11.1542 5.45236M11.1542 5.45236L15.1895 6.03874M11.1542 5.45236L12.5714 10.6223L12.0786 10.7071C12.0026 10.2652 12.1493 9.8144 12.4699 9.50173L12.47 9.50162L15.39 6.6554L15.39 6.65536C15.6044 6.44642 15.4864 6.08192 15.1895 6.03874M12.0103 15.5498C12.6425 15.8819 13.3814 15.3452 13.2606 14.6413L12.2429 15.1071M12.0103 15.5498L12.243 15.1072L12.2429 15.1071M12.0103 15.5498L12.2429 15.1071" stroke="#282932"/>
</g>
<defs>
<clipPath id="clip0_19_68">
<rect width="16" height="16" fill="white"/>
</clipPath>
</defs>
</svg>
