<svg width="16" height="16" viewBox="0 0 16 16" fill="none" xmlns="http://www.w3.org/2000/svg">
<g clip-path="url(#clip0_19_61)">
<path d="M8.77264 0.829716L10.5772 4.48629C10.7027 4.7406 10.9454 4.91682 11.226 4.95754L15.2614 5.54394C15.9683 5.64674 16.2503 6.51516 15.739 7.01345L12.819 9.85967C12.6161 10.0576 12.5233 10.3429 12.5714 10.6223L13.2606 14.6413C13.3814 15.3452 12.6425 15.8819 12.0104 15.5498L8.40118 13.6524C8.1502 13.5206 7.85016 13.5206 7.59918 13.6524L3.99 15.5498C3.35787 15.8822 2.61895 15.3452 2.73977 14.6413L3.42896 10.6223C3.47702 10.3429 3.38424 10.0576 3.18132 9.85967L0.261337 7.01345C-0.249969 6.51482 0.0320503 5.6464 0.738934 5.54394L4.77431 4.95754C5.055 4.91682 5.29763 4.7406 5.42312 4.48629L7.22771 0.829716C7.54344 0.189248 8.45658 0.189248 8.77264 0.829716Z" fill="#ED8A19"/>
</g>
<defs>
<clipPath id="clip0_19_61">
<rect width="16" height="16" fill="white"/>
</clipPath>
</defs>
</svg>
